<svg xmlns="http://www.w3.org/2000/svg" width="2048" height="1212" viewBox="0 0 2048 1212" role="img" aria-labelledby="title desc">
  <title id="title">ServiceCue Setup Mode screenshot reference</title>
  <desc id="desc">ServiceCue setup mode showing the library, accordion schedule sections, guest import panel, and bottom player.</desc>
  <defs>
    <style>
      .bg{fill:#f6f8fb}.white{fill:#fff}.panel{fill:#fff;stroke:#d5deea;stroke-width:1.5}.line{stroke:#d8dee8;stroke-width:1.5}.ink{fill:#172033;font-family:Inter,Arial,sans-serif;font-weight:700}.text{fill:#172033;font-family:Inter,Arial,sans-serif}.muted{fill:#64748b;font-family:Inter,Arial,sans-serif}.blue{fill:#245bdb}.blueText{fill:#245bdb;font-family:Inter,Arial,sans-serif;font-weight:700}.btn{fill:#fff;stroke:#cbd5e1;stroke-width:1.5}.input{fill:#fff;stroke:#cbd5e1;stroke-width:1.5}.ghost{fill:#f8fafc;stroke:#cbd5e1;stroke-width:1.5}.dash{fill:#fff;stroke:#cbd5e1;stroke-width:1.5;stroke-dasharray:6 5}.y{fill:#ecfdf5;stroke:#a7f3d0}.c{fill:#fffbeb;stroke:#fde68a}.s{fill:#f5f3ff;stroke:#ddd6fe}.g{fill:#f0f9ff;stroke:#bae6fd}.o{fill:#eff6ff;stroke:#bfdbfe}.small{font-size:14}.med{font-size:16}.large{font-size:22}.xl{font-size:26}
    </style>
  </defs>
  <rect class="bg" width="2048" height="1212"/>
  <rect class="white" width="2048" height="122"/>
  <line class="line" x1="0" y1="122" x2="2048" y2="122"/>
  <rect class="blue" x="52" y="56" width="48" height="48" rx="10"/>
  <text class="ink xl" x="112" y="78">ServiceCue</text>
  <text class="muted med" x="112" y="104">Local backing-track player for church services</text>
  <rect class="btn" x="1034" y="54" width="184" height="52" rx="7"/>
  <rect class="blue" x="1040" y="60" width="92" height="40" rx="5"/>
  <text fill="#fff" font-family="Inter,Arial,sans-serif" font-weight="700" x="1064" y="86" font-size="16">Setup</text>
  <text class="muted med" font-weight="700" x="1154" y="86">Live</text>
  <rect class="input" x="1232" y="58" width="380" height="42" rx="6"/>
  <text class="text med" x="1252" y="84">Sunday Service - 2026-06-15</text>
  <rect class="btn" x="1626" y="58" width="108" height="42" rx="6"/><text class="ink med" x="1666" y="84">Save</text>
  <rect class="btn" x="1746" y="58" width="108" height="42" rx="6"/><text class="ink med" x="1786" y="84">Load</text>
  <rect class="btn" x="1864" y="58" width="132" height="42" rx="6"/><text class="ink med" x="1902" y="84">Settings</text>

  <g transform="translate(42,140)">
    <rect class="panel" width="538" height="850" rx="6"/>
    <text class="ink large" x="20" y="42">Library</text><text class="muted small" font-weight="700" x="464" y="42">6 tracks</text>
    <rect class="ghost" x="20" y="68" width="498" height="62" rx="7"/>
    <text class="muted med" x="56" y="106">/Users/dumitru/Downloads/ServiceCue-testmedia</text>
    <rect class="input" x="20" y="142" width="498" height="46" rx="7"/>
    <text class="muted med" x="60" y="171">Search songs, groups, or filename</text>
    <rect class="blue" x="20" y="200" width="54" height="40" rx="7"/><text fill="#fff" font-family="Inter,Arial,sans-serif" font-weight="700" x="38" y="226" font-size="16">All</text>
    <g class="btn"><rect x="82" y="200" width="78" height="40" rx="7"/><rect x="168" y="200" width="78" height="40" rx="7"/><rect x="254" y="200" width="78" height="40" rx="7"/><rect x="340" y="200" width="78" height="40" rx="7"/><rect x="426" y="200" width="92" height="40" rx="7"/></g>
    <text class="ink med" x="108" y="226">Youth</text><text class="ink med" x="194" y="226">Choir</text><text class="ink med" x="284" y="226">Solo</text><text class="ink med" x="362" y="226">Guest</text><text class="ink med" x="454" y="226">Other</text>
    <text class="muted small" font-weight="700" x="36" y="270">TITLE</text><text class="muted small" font-weight="700" x="314" y="270">GROUP</text><text class="muted small" font-weight="700" x="444" y="270">LENGTH</text>
    <line class="line" x1="20" y1="286" x2="518" y2="286"/>
    <rect fill="#eaf2ff" x="20" y="287" width="498" height="52"/>
    <rect fill="#fff" stroke="#f59e0b" stroke-width="2" x="34" y="300" width="262" height="24" rx="3"/>
    <text class="text med" x="36" y="320">Ce Nume Minunat</text><rect class="input" x="306" y="298" width="114" height="30" rx="5"/><text class="text small" x="318" y="318">Solo</text><text class="text med" x="452" y="320">3:12</text>
    <g class="med"><text class="text" x="36" y="372">Ce Nume Minunat</text><rect class="input" x="306" y="350" width="114" height="30" rx="5"/><text class="text small" x="318" y="370">Other</text><text class="text" x="452" y="372">2:09</text><line class="line" x1="20" y1="391" x2="518" y2="391"/>
    <text class="text" x="36" y="424">Duhule, condu-ma</text><rect class="input" x="306" y="402" width="114" height="30" rx="5"/><text class="text small" x="318" y="422">Other</text><text class="text" x="452" y="424">4:12</text><line class="line" x1="20" y1="443" x2="518" y2="443"/>
    <text class="text" x="36" y="476">Instrumental</text><rect class="input" x="306" y="454" width="114" height="30" rx="5"/><text class="text small" x="318" y="474">Other</text><text class="text" x="452" y="476">2:22</text><line class="line" x1="20" y1="495" x2="518" y2="495"/>
    <text class="text" x="36" y="528">Instrumental</text><rect class="input" x="306" y="506" width="114" height="30" rx="5"/><text class="text small" x="318" y="526">Other</text><text class="text" x="452" y="528">2:22</text><line class="line" x1="20" y1="547" x2="518" y2="547"/>
    <text class="text" x="36" y="580">Veniti credinciosi</text><rect class="input" x="306" y="558" width="114" height="30" rx="5"/><text class="text small" x="318" y="578">Other</text><text class="text" x="452" y="580">2:09</text></g>
  </g>

  <g transform="translate(590,140)">
    <rect class="panel" width="930" height="850" rx="6"/>
    <text class="ink large" x="20" y="42">Today's Schedule</text><text class="muted med" x="20" y="68">Sunday Service - 2026-06-15</text>
    <rect class="input" x="390" y="22" width="264" height="44" rx="6"/><text class="text med" x="406" y="50">Sunday Service - 2026-06-15</text>
    <rect class="input" x="664" y="22" width="170" height="44" rx="6"/><text class="text med" x="684" y="50">06/15/2026</text><text class="muted med" font-weight="700" x="860" y="50">New</text>
    <g transform="translate(20,96)">
      <rect class="y" width="882" height="140" rx="6"/><rect fill="#10b981" x="54" y="24" width="5" height="38" rx="3"/><text fill="#065f46" font-family="Inter,Arial,sans-serif" font-weight="700" x="78" y="50" font-size="18">Youth</text><text class="muted small" font-weight="700" x="580" y="50">0 songs</text><rect class="btn" stroke="#245bdb" x="654" y="18" width="108" height="36" rx="6"/><text class="blueText small" x="674" y="42">Play section</text><rect class="dash" x="20" y="76" width="842" height="52" rx="6"/><text class="muted med" x="34" y="108">No songs in this section.</text>
    </g>
    <g transform="translate(20,250)"><rect class="c" width="882" height="140" rx="6"/><rect fill="#f59e0b" x="54" y="24" width="5" height="38" rx="3"/><text fill="#92400e" font-family="Inter,Arial,sans-serif" font-weight="700" x="78" y="50" font-size="18">Choir</text><text class="muted small" font-weight="700" x="580" y="50">0 songs</text><rect class="btn" stroke="#245bdb" x="654" y="18" width="108" height="36" rx="6"/><text class="blueText small" x="674" y="42">Play section</text><rect class="dash" x="20" y="76" width="842" height="52" rx="6"/><text class="muted med" x="34" y="108">No songs in this section.</text></g>
    <g transform="translate(20,404)"><rect class="s" width="882" height="140" rx="6"/><rect fill="#8b5cf6" x="54" y="24" width="5" height="38" rx="3"/><text fill="#6d28d9" font-family="Inter,Arial,sans-serif" font-weight="700" x="78" y="50" font-size="18">Solo</text><text class="muted small" font-weight="700" x="580" y="50">0 songs</text><rect class="btn" stroke="#245bdb" x="654" y="18" width="108" height="36" rx="6"/><text class="blueText small" x="674" y="42">Play section</text><rect class="dash" x="20" y="76" width="842" height="52" rx="6"/><text class="muted med" x="34" y="108">No songs in this section.</text></g>
    <g transform="translate(20,558)"><rect class="g" width="882" height="140" rx="6"/><rect fill="#0ea5e9" x="54" y="24" width="5" height="38" rx="3"/><text fill="#075985" font-family="Inter,Arial,sans-serif" font-weight="700" x="78" y="50" font-size="18">Guest</text><text class="muted small" font-weight="700" x="580" y="50">0 songs</text><rect class="btn" stroke="#245bdb" x="654" y="18" width="108" height="36" rx="6"/><text class="blueText small" x="674" y="42">Play section</text><rect class="dash" x="20" y="76" width="842" height="52" rx="6"/><text class="muted med" x="34" y="108">No songs in this section.</text></g>
    <g transform="translate(20,712)"><rect class="o" width="882" height="58" rx="6"/><rect class="blue" x="54" y="14" width="5" height="34" rx="3"/><text fill="#1e40af" font-family="Inter,Arial,sans-serif" font-weight="700" x="78" y="38" font-size="18">Other / Special</text><text class="muted small" font-weight="700" x="580" y="38">0 songs</text><rect class="btn" stroke="#245bdb" x="654" y="12" width="108" height="36" rx="6"/><text class="blueText small" x="674" y="36">Play section</text></g>
    <rect fill="#fff" stroke="#245bdb" stroke-width="1.5" x="20" y="790" width="882" height="44" rx="6"/><text class="blueText med" x="414" y="818">+ Add Section</text>
  </g>

  <g transform="translate(1530,140)">
    <rect class="panel" width="476" height="850" rx="6"/>
    <text class="ink large" x="24" y="48">Import Guest File</text>
    <rect class="dash" fill="#f8fafc" x="24" y="96" width="428" height="268" rx="6"/>
    <text class="ink med" x="174" y="258">Drop MP3 here</text><text class="blueText small" x="202" y="286">or browse</text>
    <text class="text med" x="24" y="406">Section</text><rect class="input" x="24" y="420" width="428" height="44" rx="6"/><text class="text med" x="44" y="448">Guest</text>
    <text class="text med" x="24" y="506">Guest or group name</text><rect class="input" x="24" y="520" width="428" height="44" rx="6"/><text class="muted med" x="44" y="548">Optional</text>
    <text class="text med" x="24" y="604">Song title</text><rect class="input" x="24" y="618" width="428" height="44" rx="6"/>
    <rect fill="#9db5f1" x="24" y="700" width="428" height="42" rx="6"/><text fill="#fff" font-family="Inter,Arial,sans-serif" font-weight="700" x="194" y="726" font-size="16">Add to Service</text>
    <text class="muted med" x="122" y="774">File is copied into today's service folder.</text>
  </g>

  <g transform="translate(0,1008)">
    <rect class="white" width="2048" height="204"/><line class="line" x1="0" y1="0" x2="2048" y2="0"/>
    <rect class="ghost" x="28" y="38" width="76" height="76" rx="7"/><text class="blueText med" x="122" y="36">Now Playing</text><text class="ink large" x="122" y="68">Ce Nume Minunat</text><text class="text med" x="122" y="94">Solo</text><text class="text med" x="122" y="132">0:00</text><line stroke="#cbd5e1" stroke-width="9" stroke-linecap="round" x1="184" y1="126" x2="714" y2="126"/><text class="text med" x="744" y="132">3:12</text>
    <rect class="btn" x="796" y="38" width="96" height="76" rx="7"/><text class="ink med" x="816" y="94">Restart</text><rect class="btn" x="906" y="38" width="96" height="76" rx="7"/><text class="muted med" font-weight="700" x="928" y="94">Previous</text><circle class="blue" cx="1062" cy="76" r="48"/><polygon fill="#fff" points="1048,50 1048,102 1092,76"/><rect class="btn" x="1124" y="38" width="96" height="76" rx="7"/><text class="muted med" font-weight="700" x="1158" y="94">Next</text><rect fill="#fef2f2" stroke="#fecaca" x="1234" y="38" width="96" height="76" rx="7"/><text fill="#b91c1c" font-family="Inter,Arial,sans-serif" font-weight="700" x="1264" y="94" font-size="16">Stop</text>
    <line class="line" x1="1348" y1="20" x2="1348" y2="126"/><text class="text med" x="1370" y="22">Fade Out</text><rect class="input" x="1370" y="42" width="138" height="44" rx="6"/><text class="text small" x="1390" y="70">5 sec</text><text class="blueText med" x="1518" y="22">Volume</text><line stroke="#245bdb" stroke-width="9" stroke-linecap="round" x1="1552" y1="68" x2="1926" y2="68"/><circle class="blue" cx="1926" cy="68" r="10"/><text class="text med" x="1948" y="74">100%</text>
    <rect class="ghost" x="76" y="154" width="1900" height="38" rx="6"/><text class="muted med" x="90" y="179">Status: </text><text class="ink med" x="150" y="179">stopped.</text><text class="muted med" x="220" y="179">Loaded Ce Nume Minunat.</text>
  </g>
</svg>
