<svg xmlns="http://www.w3.org/2000/svg" width="2048" height="1208" viewBox="0 0 2048 1208" role="img" aria-labelledby="title desc">
  <title id="title">ServiceCue Live Mode screenshot reference</title>
  <desc id="desc">ServiceCue live mode showing the playback-only service order with accordion sections and bottom player.</desc>
  <defs><style>.bg{fill:#f6f8fb}.white{fill:#fff}.panel{fill:#fff;stroke:#d5deea;stroke-width:1.5}.line{stroke:#d8dee8;stroke-width:1.5}.ink{fill:#172033;font-family:Inter,Arial,sans-serif;font-weight:700}.text{fill:#172033;font-family:Inter,Arial,sans-serif}.muted{fill:#64748b;font-family:Inter,Arial,sans-serif}.blue{fill:#245bdb}.blueText{fill:#245bdb;font-family:Inter,Arial,sans-serif;font-weight:700}.btn{fill:#fff;stroke:#cbd5e1;stroke-width:1.5}.input{fill:#fff;stroke:#cbd5e1;stroke-width:1.5}.ghost{fill:#f8fafc;stroke:#cbd5e1;stroke-width:1.5}.dash{fill:#fff;stroke:#cbd5e1;stroke-width:1.5;stroke-dasharray:6 5}.y{fill:#ecfdf5;stroke:#a7f3d0}.c{fill:#fffbeb;stroke:#fde68a}.s{fill:#f5f3ff;stroke:#ddd6fe}.g{fill:#f0f9ff;stroke:#bae6fd}.o{fill:#eff6ff;stroke:#bfdbfe}.small{font-size:14}.med{font-size:16}.large{font-size:22}.xl{font-size:26}</style></defs>
  <rect class="bg" width="2048" height="1208"/><rect class="white" width="2048" height="122"/><line class="line" x1="0" y1="122" x2="2048" y2="122"/>
  <rect class="blue" x="52" y="56" width="48" height="48" rx="10"/><text class="ink xl" x="112" y="78">ServiceCue</text><text class="muted med" x="112" y="104">Local backing-track player for church services</text>
  <rect class="btn" x="1402" y="54" width="184" height="52" rx="7"/><text class="muted med" font-weight="700" x="1432" y="86">Setup</text><rect class="blue" x="1500" y="60" width="78" height="40" rx="5"/><text fill="#fff" font-family="Inter,Arial,sans-serif" font-weight="700" x="1528" y="86" font-size="16">Live</text>
  <rect class="input" x="1604" y="58" width="378" height="42" rx="6"/><text class="text med" x="1624" y="84">Sunday Service - 2026-06-15</text>
  <g transform="translate(42,138)"><rect class="panel" width="1964" height="850" rx="6"/><text class="ink large" x="20" y="42">Service Order</text><text class="muted med" x="20" y="68">Sunday Service - 2026-06-15</text>
    <g transform="translate(20,96)"><rect class="y" width="1924" height="132" rx="6"/><rect fill="#10b981" x="54" y="16" width="5" height="38" rx="3"/><text fill="#065f46" font-family="Inter,Arial,sans-serif" font-weight="700" x="82" y="42" font-size="18">Youth</text><text class="muted small" font-weight="700" x="1716" y="42">0 songs</text><rect class="btn" stroke="#245bdb" x="1788" y="18" width="110" height="36" rx="6"/><text class="blueText small" x="1810" y="42">Play section</text><rect class="dash" x="20" y="72" width="1884" height="52" rx="6"/><text class="muted med" x="34" y="104">No songs in this section.</text></g>
    <g transform="translate(20,244)"><rect class="c" width="1924" height="132" rx="6"/><rect fill="#f59e0b" x="54" y="16" width="5" height="38" rx="3"/><text fill="#92400e" font-family="Inter,Arial,sans-serif" font-weight="700" x="82" y="42" font-size="18">Choir</text><text class="muted small" font-weight="700" x="1716" y="42">0 songs</text><rect class="btn" stroke="#245bdb" x="1788" y="18" width="110" height="36" rx="6"/><text class="blueText small" x="1810" y="42">Play section</text><rect class="dash" x="20" y="72" width="1884" height="52" rx="6"/><text class="muted med" x="34" y="104">No songs in this section.</text></g>
    <g transform="translate(20,392)"><rect class="s" width="1924" height="132" rx="6"/><rect fill="#8b5cf6" x="54" y="16" width="5" height="38" rx="3"/><text fill="#6d28d9" font-family="Inter,Arial,sans-serif" font-weight="700" x="82" y="42" font-size="18">Solo</text><text class="muted small" font-weight="700" x="1716" y="42">0 songs</text><rect class="btn" stroke="#245bdb" x="1788" y="18" width="110" height="36" rx="6"/><text class="blueText small" x="1810" y="42">Play section</text><rect class="dash" x="20" y="72" width="1884" height="52" rx="6"/><text class="muted med" x="34" y="104">No songs in this section.</text></g>
    <g transform="translate(20,540)"><rect class="g" width="1924" height="132" rx="6"/><rect fill="#0ea5e9" x="54" y="16" width="5" height="38" rx="3"/><text fill="#075985" font-family="Inter,Arial,sans-serif" font-weight="700" x="82" y="42" font-size="18">Guest</text><text class="muted small" font-weight="700" x="1716" y="42">0 songs</text><rect class="btn" stroke="#245bdb" x="1788" y="18" width="110" height="36" rx="6"/><text class="blueText small" x="1810" y="42">Play section</text><rect class="dash" x="20" y="72" width="1884" height="52" rx="6"/><text class="muted med" x="34" y="104">No songs in this section.</text></g>
    <g transform="translate(20,688)"><rect class="o" width="1924" height="132" rx="6"/><rect class="blue" x="54" y="16" width="5" height="38" rx="3"/><text fill="#1e40af" font-family="Inter,Arial,sans-serif" font-weight="700" x="82" y="42" font-size="18">Other / Special</text><text class="muted small" font-weight="700" x="1716" y="42">0 songs</text><rect class="btn" stroke="#245bdb" x="1788" y="18" width="110" height="36" rx="6"/><text class="blueText small" x="1810" y="42">Play section</text><rect class="dash" x="20" y="72" width="1884" height="52" rx="6"/><text class="muted med" x="34" y="104">No songs in this section.</text></g>
  </g>
  <g transform="translate(0,1002)"><rect class="white" width="2048" height="206"/><line class="line" x1="0" y1="0" x2="2048" y2="0"/>
    <rect class="ghost" x="28" y="40" width="76" height="76" rx="7"/><text class="blueText med" x="122" y="36">Now Playing</text><text class="ink large" x="122" y="68">Ce Nume Minunat</text><text class="text med" x="122" y="94">Solo</text><text class="text med" x="122" y="132">0:00</text><line stroke="#cbd5e1" stroke-width="9" stroke-linecap="round" x1="184" y1="126" x2="714" y2="126"/><text class="text med" x="744" y="132">3:12</text>
    <rect class="btn" x="796" y="40" width="96" height="76" rx="7"/><text class="ink med" x="816" y="96">Restart</text><rect class="btn" x="906" y="40" width="96" height="76" rx="7"/><text class="muted med" font-weight="700" x="928" y="96">Previous</text><circle class="blue" cx="1062" cy="78" r="48"/><polygon fill="#fff" points="1048,52 1048,104 1092,78"/><rect class="btn" x="1124" y="40" width="96" height="76" rx="7"/><text class="muted med" font-weight="700" x="1158" y="96">Next</text><rect fill="#fef2f2" stroke="#fecaca" x="1234" y="40" width="96" height="76" rx="7"/><text fill="#b91c1c" font-family="Inter,Arial,sans-serif" font-weight="700" x="1264" y="96" font-size="16">Stop</text>
    <line class="line" x1="1348" y1="20" x2="1348" y2="126"/><text class="text med" x="1370" y="22">Fade Out</text><rect class="input" x="1370" y="42" width="138" height="44" rx="6"/><text class="text small" x="1390" y="70">5 sec</text><text class="blueText med" x="1518" y="22">Volume</text><line stroke="#245bdb" stroke-width="9" stroke-linecap="round" x1="1552" y1="68" x2="1926" y2="68"/><circle class="blue" cx="1926" cy="68" r="10"/><text class="text med" x="1948" y="74">100%</text>
    <rect class="ghost" x="76" y="154" width="1900" height="38" rx="6"/><text class="muted med" x="90" y="179">Status: </text><text class="ink med" x="150" y="179">stopped.</text><text class="muted med" x="220" y="179">Loaded Ce Nume Minunat.</text>
  </g>
</svg>
